<?xml version="1.0" encoding="UTF-8" standalone="no"?>
<!-- Created with Inkscape (http://www.inkscape.org/) -->

<svg
   width="105.48816mm"
   height="21.024536mm"
   viewBox="0 0 105.48816 21.024536"
   version="1.1"
   id="svg4836"
   inkscape:version="1.2.2 (b0a8486541, 2022-12-01)"
   sodipodi:docname="logo-part-mainv2-small-canvas.svg"
   xmlns:inkscape="http://www.inkscape.org/namespaces/inkscape"
   xmlns:sodipodi="http://sodipodi.sourceforge.net/DTD/sodipodi-0.dtd"
   xmlns:xlink="http://www.w3.org/1999/xlink"
   xmlns="http://www.w3.org/2000/svg"
   xmlns:svg="http://www.w3.org/2000/svg">
  <sodipodi:namedview
     id="namedview4838"
     pagecolor="#ffffff"
     bordercolor="#000000"
     borderopacity="0.25"
     inkscape:showpageshadow="2"
     inkscape:pageopacity="0.0"
     inkscape:pagecheckerboard="0"
     inkscape:deskcolor="#d1d1d1"
     inkscape:document-units="mm"
     showgrid="false"
     inkscape:zoom="0.914906"
     inkscape:cx="254.67097"
     inkscape:cy="35.522775"
     inkscape:window-width="3840"
     inkscape:window-height="1572"
     inkscape:window-x="0"
     inkscape:window-y="0"
     inkscape:window-maximized="1"
     inkscape:current-layer="layer1" />
  <defs
     id="defs4833">
    <linearGradient
       inkscape:collect="always"
       xlink:href="#linearGradient486"
       id="linearGradient3939"
       gradientUnits="userSpaceOnUse"
       x1="126.16743"
       y1="36.890591"
       x2="125.98748"
       y2="63.28323" />
    <linearGradient
       inkscape:collect="always"
       id="linearGradient486">
      <stop
         style="stop-color:#f1c706;stop-opacity:1;"
         offset="0"
         id="stop482" />
      <stop
         style="stop-color:#f1840a;stop-opacity:1;"
         offset="1"
         id="stop484" />
    </linearGradient>
    <linearGradient
       inkscape:collect="always"
       xlink:href="#linearGradient486"
       id="linearGradient4980"
       gradientUnits="userSpaceOnUse"
       x1="126.16743"
       y1="36.890591"
       x2="125.98748"
       y2="63.28323" />
    <linearGradient
       inkscape:collect="always"
       xlink:href="#linearGradient486"
       id="linearGradient4982"
       gradientUnits="userSpaceOnUse"
       x1="126.16743"
       y1="36.890591"
       x2="125.98748"
       y2="63.28323" />
    <linearGradient
       inkscape:collect="always"
       xlink:href="#linearGradient486"
       id="linearGradient4984"
       gradientUnits="userSpaceOnUse"
       x1="126.16743"
       y1="36.890591"
       x2="125.98748"
       y2="63.28323" />
    <linearGradient
       inkscape:collect="always"
       xlink:href="#linearGradient486"
       id="linearGradient4986"
       gradientUnits="userSpaceOnUse"
       x1="126.16743"
       y1="36.890591"
       x2="125.98748"
       y2="63.28323" />
    <linearGradient
       inkscape:collect="always"
       xlink:href="#linearGradient486"
       id="linearGradient4988"
       gradientUnits="userSpaceOnUse"
       x1="126.16743"
       y1="36.890591"
       x2="125.98748"
       y2="63.28323" />
    <linearGradient
       inkscape:collect="always"
       xlink:href="#linearGradient486"
       id="linearGradient4990"
       gradientUnits="userSpaceOnUse"
       x1="126.16743"
       y1="36.890591"
       x2="125.98748"
       y2="63.28323" />
    <linearGradient
       inkscape:collect="always"
       xlink:href="#linearGradient486"
       id="linearGradient4992"
       gradientUnits="userSpaceOnUse"
       x1="126.16743"
       y1="36.890591"
       x2="125.98748"
       y2="63.28323" />
    <linearGradient
       inkscape:collect="always"
       xlink:href="#linearGradient486"
       id="linearGradient4994"
       gradientUnits="userSpaceOnUse"
       x1="126.16743"
       y1="36.890591"
       x2="125.98748"
       y2="63.28323" />
    <linearGradient
       inkscape:collect="always"
       xlink:href="#linearGradient486"
       id="linearGradient4996"
       gradientUnits="userSpaceOnUse"
       x1="126.16743"
       y1="36.890591"
       x2="125.98748"
       y2="63.28323" />
    <linearGradient
       inkscape:collect="always"
       xlink:href="#linearGradient486"
       id="linearGradient4998"
       gradientUnits="userSpaceOnUse"
       x1="126.16743"
       y1="36.890591"
       x2="125.98748"
       y2="63.28323" />
  </defs>
  <g
     inkscape:label="Layer 1"
     inkscape:groupmode="layer"
     id="layer1"
     transform="translate(-37.483768,-138.9999)">
    <g
       id="g3917"
       transform="matrix(0.56020991,0,0,0.56020991,24.051369,64.717126)">
      <rect
         style="fill:#0e6d6c;fill-opacity:1;stroke-width:0.371627"
         id="rect3893"
         width="188.30113"
         height="37.529747"
         x="23.97744"
         y="132.59811" />
      <g
         aria-label="Art by Donna"
         id="g3915"
         style="font-size:3.175px;white-space:pre;inline-size:202.164;fill:url(#linearGradient3939);fill-opacity:1;stroke-width:0.264583"
         transform="translate(-5.7680825,100.82407)">
        <path
           d="m 70.473752,49.86896 q -0.148167,0.04233 -0.423334,-0.08467 -0.275167,-0.148166 -0.508001,-0.3175 -0.232833,-0.1905 -0.381,-0.381001 -0.127001,-0.1905 -0.02117,-0.296333 1.778003,-0.402168 3.577172,-0.740835 1.79917,-0.359834 3.640673,-0.550334 1.375835,-1.270002 2.688171,-2.518838 1.312335,-1.270002 2.476504,-2.43417 1.185335,-1.185335 2.201336,-2.222504 1.016002,-1.058335 1.79917,-1.905003 0.804335,-0.846668 1.333502,-1.439335 0.529168,-0.613835 0.740835,-0.910168 0.148167,-0.0635 0.465667,0.127 0.338667,0.169333 0.656168,0.423334 0.3175,0.254 0.529167,0.529167 0.211667,0.254001 0.127,0.359834 l -0.105833,0.08467 q 0.105833,0.04233 0.105833,0.105834 -0.232833,0.613834 -0.656167,1.481669 -0.423334,0.846668 -0.994835,1.862669 -0.550334,1.016002 -1.206502,2.159004 -0.656168,1.143001 -1.333502,2.30717 -1.079502,1.841503 -2.137837,3.704173 -1.058335,1.841502 -1.86267,3.450172 -0.783167,1.587502 -1.185335,2.794004 -0.381,1.206502 -0.127,1.756836 0.169334,0.359834 0.338667,0.486834 h -0.04233 q 0.148167,0.105834 0.127,0.211667 0,0.127001 -0.105833,0.211667 -0.08467,0.08467 -0.254001,0.105834 -0.148167,0.04233 -0.3175,-0.02117 -1.143002,-0.08467 -1.587503,-0.719668 -0.423334,-0.613834 -0.423334,-1.439335 0,-0.381001 0.0635,-0.783168 0.08467,-0.423334 0.1905,-0.825501 0.105834,-0.402168 0.232834,-0.762002 0.127,-0.359834 0.232834,-0.656167 0.508001,-1.185336 1.143002,-2.391838 0.656167,-1.206501 1.397002,-2.455337 -0.402167,-0.02117 -0.783168,-0.02117 -0.381001,-0.02117 -0.740835,-0.02117 -0.359833,0 -0.719667,0.02117 -0.338668,0 -0.677335,0.02117 l -0.952501,0.867835 -1.079502,1.016002 q -1.460502,1.375835 -3.090338,2.836337 -1.608669,1.460503 -3.344339,2.688171 -1.714503,1.206502 -3.513672,2.010837 -1.79917,0.825501 -3.640673,0.910168 -1.714502,0.08467 -2.984504,-0.359834 -1.248836,-0.423334 -2.074337,-1.206502 -0.804335,-0.762001 -1.206502,-1.799169 -0.402167,-1.037169 -0.402167,-2.18017 0,-1.270003 0.486834,-2.540005 0.508001,-1.291168 1.460502,-2.328337 0.973668,-1.037168 2.370671,-1.672169 1.418169,-0.656168 3.259672,-0.698501 1.481669,-0.02117 2.518837,0.571501 1.037168,0.571501 1.629836,1.693336 h 0.02117 q 0.04233,0.169334 0,0.486834 -0.04233,0.317501 -0.148166,0.613834 -0.105834,0.275167 -0.254001,0.423334 -0.148167,0.127001 -0.3175,-0.0635 -0.232834,-0.359834 -0.592668,-0.783168 -0.359834,-0.4445 -0.804335,-0.804334 -0.4445,-0.359834 -0.994834,-0.613835 -0.529168,-0.254 -1.143002,-0.254 -1.460503,-0.04233 -2.603504,0.465667 -1.143002,0.486835 -1.92617,1.333503 -0.783168,0.825501 -1.206502,1.883836 -0.402167,1.058335 -0.402167,2.11667 0,0.867835 0.275167,1.672169 0.296334,0.804335 0.867834,1.418169 0.592668,0.613834 1.481669,0.973668 0.889002,0.381001 2.095504,0.381001 0.169333,0 0.3175,0 0.169334,0 0.338668,-0.02117 1.418168,-0.08467 2.963338,-0.867834 1.545169,-0.783168 3.196171,-1.98967 1.651003,-1.227669 3.365506,-2.751671 1.714502,-1.545169 3.450172,-3.175005 -2.349504,0.381 -4.847175,1.439335 z M 81.64977,44.619619 q -0.656168,0.656167 -1.375836,1.354668 -0.719667,0.698501 -1.439335,1.375836 0.1905,-0.02117 0.381,-0.02117 0.190501,0 0.402168,0 0.4445,0 0.867834,0.02117 0.423334,0 0.846668,0.02117 0.719668,-1.206502 1.481669,-2.391838 0.762002,-1.185335 1.524003,-2.391837 l 0.931335,-1.439335 q -0.931335,0.867834 -1.841503,1.735669 -0.889002,0.867835 -1.778003,1.73567 z"
           style="font-size:21.1667px;font-family:'Ananda Black Personal Use';-inkscape-font-specification:'Ananda Black Personal Use, Normal';fill:url(#linearGradient4980);fill-opacity:1"
           id="path3895" />
        <path
           d="m 92.423633,52.811132 q -0.444501,0.635001 -1.037169,1.291168 -0.571501,0.656168 -1.248835,1.185336 -0.677334,0.529167 -1.460502,0.867834 -0.783168,0.317501 -1.629836,0.275167 -0.931335,-0.04233 -1.375836,-0.592667 -0.4445,-0.550334 -0.423334,-1.270002 0.02117,-0.529168 0.211667,-1.037169 0.190501,-0.508 0.444501,-0.994835 0.275167,-0.508 0.613834,-0.973668 0.338667,-0.486834 0.677335,-0.952501 0.08467,-0.105834 0.1905,-0.275167 0.105833,-0.169334 0.211667,-0.275167 l 0.486834,-0.656168 q 0.381001,-0.529168 0.698501,-0.910168 0.317501,-0.402168 0.423334,-0.465668 -0.254,0.04233 -0.465667,0.08467 -0.190501,0.04233 -0.381001,0.105834 -0.232834,0.0635 -0.486834,0.105833 -0.232834,0.04233 -0.635001,0.02117 h -0.254 q -0.465668,0.635001 -0.910168,1.333502 -0.444501,0.677334 -0.825502,1.312335 -0.08467,0.105834 -0.275167,0.105834 -0.169333,0 -0.338667,-0.04233 -0.169334,-0.0635 -0.275167,-0.169333 -0.08467,-0.105834 0.02117,-0.254001 0.169334,-0.275167 0.359834,-0.592667 0.190501,-0.317501 0.359834,-0.592668 0.190501,-0.3175 0.402168,-0.656167 0.232833,-0.359834 0.465667,-0.719668 -0.3175,-0.232834 -0.3175,-0.635001 0,-0.232834 0.105833,-0.529168 0.105834,-0.3175 0.254,-0.635001 0.169334,-0.3175 0.359834,-0.635001 0.190501,-0.338667 0.381001,-0.635001 0.169334,-0.254 0.296334,-0.529167 0.148167,-0.275167 0.254,-0.571501 0.571501,0.232833 1.079502,0.592667 0.529167,0.338668 0.529167,0.846668 0,0.232834 -0.148167,0.592668 L 87.809296,47.3078 q -0.08467,0.127 0.105833,0.08467 0.211667,-0.04233 0.592668,-0.169333 0.381001,-0.148167 0.846668,-0.338668 0.486834,-0.211667 0.910168,-0.423334 0.444501,-0.211667 0.783168,-0.402167 0.359834,-0.211667 0.465668,-0.338667 0.127,0 0.3175,0.08467 0.1905,0.08467 0.381001,0.1905 0.1905,0.105834 0.338667,0.211667 0.148167,0.105834 0.169333,0.127 0.169334,0.232834 0.0635,0.613835 -0.105834,0.381 -0.402168,0.867834 -0.296334,0.465668 -0.740834,1.037169 -0.423334,0.550334 -0.889002,1.143001 -0.275167,0.359834 -0.550334,0.719668 -0.275167,0.338667 -0.550334,0.698501 -0.211667,0.254001 -0.465668,0.613835 -0.254,0.359834 -0.486834,0.762001 -0.232833,0.381001 -0.402167,0.762001 -0.148167,0.381001 -0.148167,0.698501 0,0.529168 0.402167,0.550334 0.232834,0 0.592668,-0.169333 0.359834,-0.1905 0.762001,-0.508001 0.402168,-0.338667 0.825502,-0.762001 0.423334,-0.444501 0.783168,-0.952502 0.381,-0.571501 0.740834,-1.164168 0.381001,-0.613835 0.613834,-1.016002 0.08467,-0.105833 0.254001,-0.105833 0.1905,-0.02117 0.359834,0.04233 0.169333,0.0635 0.275167,0.169334 0.105833,0.105833 0.02117,0.254 -0.148166,0.232834 -0.296333,0.486834 -0.127001,0.232834 -0.275167,0.465668 -0.190501,0.338667 -0.381001,0.656167 -0.1905,0.317501 -0.402167,0.613835 z"
           style="font-size:21.1667px;font-family:'Ananda Black Personal Use';-inkscape-font-specification:'Ananda Black Personal Use, Normal';fill:url(#linearGradient4982);fill-opacity:1"
           id="path3897" />
        <path
           d="m 93.37612,45.868454 q -0.1905,0.0635 -0.338667,0.02117 -0.148167,-0.04233 -0.232834,-0.127001 -0.08467,-0.105833 -0.0635,-0.211667 0.02117,-0.127 0.169334,-0.232833 1.502835,-0.973669 3.069171,-1.60867 1.164169,-2.49767 1.651003,-4.29684 0.254,-0.127 0.698501,-0.02117 0.444501,0.105833 0.846668,0.359833 0.402167,0.254001 0.656168,0.613835 0.253996,0.359834 0.127,0.719668 -0.08467,0.211667 -0.275167,0.656167 -0.1905,0.423334 -0.465668,0.973669 1.587501,-0.317501 3.196171,-0.317501 0.21167,0 0.508,0.02117 0.3175,0 0.52917,0.02117 0.0635,0.169334 0,0.381001 -0.0635,0.211667 -0.21167,0.402167 -0.127,0.169334 -0.3175,0.296334 -0.1905,0.105834 -0.381,0.0635 -0.254,-0.02117 -0.48683,-0.02117 -0.23284,-0.02117 -0.46567,-0.02117 -0.74083,0 -1.48167,0.08467 -0.719667,0.08467 -1.460501,0.254 l -0.994835,1.947336 -0.127001,0.254001 q -0.1905,0.359834 -0.529167,1.016001 -0.317501,0.635002 -0.698501,1.439336 -0.381001,0.783168 -0.783168,1.651003 -0.381001,0.867834 -0.698501,1.693336 -0.317501,0.804334 -0.529168,1.502836 -0.1905,0.698501 -0.1905,1.143001 0,0.465668 0.105833,0.571501 h 0.169334 q 0.571501,-0.211667 1.100669,-0.656167 0.529167,-0.465668 0.994834,-1.037169 0.486835,-0.592667 0.910169,-1.248835 0.4445,-0.656168 0.804334,-1.270002 h -0.02117 q 0.105834,-0.169334 0.211667,-0.317501 0.105834,-0.169333 0.211667,-0.338667 0.0635,-0.105833 0.232834,-0.105833 0.1905,-0.02117 0.359834,0.04233 0.169334,0.0635 0.275167,0.169334 0.105834,0.105833 0.04233,0.254 l -0.529168,0.867835 q -0.3175,0.508001 -0.677334,1.058335 -0.338668,0.550334 -0.740835,1.100668 -0.402167,0.529168 -0.846668,1.037169 -0.444501,0.486834 -0.931335,0.889001 -0.148167,0.127 -0.381,0.296334 -0.232834,0.169333 -0.550335,0.3175 -0.296333,0.127 -0.677334,0.232834 -0.381001,0.08467 -0.804335,0.08467 -0.867834,-0.04233 -1.270002,-0.592668 -0.381,-0.550334 -0.381,-1.354669 0,-0.169333 0.02117,-0.402167 0.02117,-0.232834 0.0635,-0.423334 0.148167,-0.952502 0.4445,-1.905003 0.317501,-0.952502 0.698501,-1.883836 0.402168,-0.952502 0.867835,-1.883837 0.465668,-0.931335 0.952502,-1.862669 l 0.613834,-1.227669 q -0.486834,0.211667 -0.973668,0.444501 -0.486834,0.211667 -0.973668,0.486834 z"
           style="font-size:21.1667px;font-family:'Ananda Black Personal Use';-inkscape-font-specification:'Ananda Black Personal Use, Normal';fill:url(#linearGradient4984);fill-opacity:1"
           id="path3899" />
        <path
           d="m 107.32497,47.286623 q 0.93133,-0.677335 1.94733,-1.100669 1.03717,-0.423334 1.98967,-0.3175 0.635,0.08467 1.05834,0.338667 0.4445,0.232834 0.6985,0.571501 0.27517,0.338667 0.381,0.762001 0.10583,0.423334 0.10583,0.867835 0,0.359834 -0.0847,0.783168 -0.0635,0.423334 -0.1905,0.825501 -0.35984,1.185335 -1.03717,2.328337 -0.65617,1.121835 -1.54517,2.010837 -0.889,0.889001 -1.9685,1.439335 -1.07951,0.550335 -2.24367,0.571501 -0.88901,0.02117 -1.46051,-0.254 -0.5715,-0.275167 -0.889,-0.677335 -0.0423,0.211667 -0.0635,0.423334 0,0.211667 -0.0212,0.444501 -0.0212,0.1905 -0.33866,0.148167 -0.3175,-0.04233 -0.67734,-0.1905 -0.35983,-0.169334 -0.67733,-0.402168 -0.3175,-0.232833 -0.33867,-0.4445 0.0635,-1.100669 0.35984,-2.24367 0.29633,-1.164169 0.74083,-2.328338 0.46567,-1.185335 1.03717,-2.37067 0.5715,-1.185335 1.143,-2.349504 l 0.61383,-1.248835 q 0.69851,-1.439336 1.31234,-2.899838 0.61383,-1.460502 0.91017,-2.561171 0.27516,-0.127 0.6985,-0.02117 0.4445,0.105833 0.8255,0.359833 0.40217,0.254001 0.65617,0.613835 0.254,0.359834 0.14816,0.719668 -0.10583,0.275167 -0.35983,0.804334 -0.254,0.529168 -0.5715,1.185335 -0.3175,0.656168 -0.67733,1.375836 -0.35984,0.719668 -0.69851,1.375835 z m -1.29117,2.43417 q -0.635,1.270002 -1.143,2.603504 -0.0635,0.359834 -0.0635,0.762002 0,0.613834 0.23283,1.143002 0.23283,0.529167 0.84667,0.5715 0.48683,0.04233 1.05833,-0.296333 0.59267,-0.338668 1.16417,-0.889002 0.59267,-0.571501 1.12184,-1.312335 0.55033,-0.740835 0.97366,-1.481669 0.42334,-0.762001 0.67734,-1.481669 0.254,-0.719668 0.254,-1.248836 0,-0.486834 -0.16933,-0.740834 -0.16934,-0.275167 -0.52917,-0.296334 -0.48684,-0.02117 -1.0795,0.1905 -0.59267,0.190501 -1.18534,0.550335 -0.59267,0.359834 -1.16417,0.867834 -0.55033,0.486834 -0.99483,1.058335 z"
           style="font-size:21.1667px;font-family:'Ananda Black Personal Use';-inkscape-font-specification:'Ananda Black Personal Use, Normal';fill:url(#linearGradient4986);fill-opacity:1"
           id="path3901" />
        <path
           d="m 115.79164,45.804954 q 0.254,-0.127 0.65617,0.02117 0.42333,0.127001 0.78317,0.402168 0.381,0.254 0.61383,0.635001 0.23283,0.359834 0.10583,0.719668 l -0.5715,1.270002 q -0.29633,0.635001 -0.65617,1.439335 -0.33866,0.783168 -0.65616,1.587503 -0.29634,0.783168 -0.508,1.502836 -0.21167,0.698501 -0.21167,1.143001 0,0.571501 0.127,0.571501 h 0.16933 q 0.5715,-0.211667 1.10067,-0.656167 0.52917,-0.465668 0.99484,-1.037169 0.48683,-0.592667 0.91016,-1.248835 0.44451,-0.656168 0.80434,-1.270002 h -0.0212 l 0.27517,-0.423334 q 0.381,-1.037168 0.762,-2.18017 0.40217,-1.164169 0.762,-2.391837 0.254,-0.127001 0.6985,0 0.4445,0.105833 0.84667,0.359833 0.40217,0.254001 0.65617,0.613835 0.254,0.359834 0.127,0.719668 l -3.13267,7.577678 q -0.48684,1.206502 -0.97367,2.243671 -0.48683,1.058335 -0.99484,1.989669 0.80434,0.444501 1.54517,0.931335 0.74084,0.486834 1.48167,0.994835 h -0.0212 q 0.0847,0.04233 0.14816,0.105834 0.0847,0.08467 0.16934,0.127 0.254,0.1905 0.0212,0.381 -0.21166,0.211667 -0.635,0.359834 -0.40217,0.148167 -0.84667,0.211667 -0.42333,0.0635 -0.5715,-0.02117 l -0.86783,-0.613835 -1.35467,-0.952501 q -0.61383,0.889001 -1.3335,1.587502 -0.6985,0.698501 -1.54517,1.164169 -0.8255,0.486834 -1.82034,0.719668 -1.016,0.254 -2.2225,0.254 -0.71967,0 -1.41817,-0.148167 -0.6985,-0.127 -1.24884,-0.423334 -0.5715,-0.296334 -0.91016,-0.783168 -0.35984,-0.465667 -0.35984,-1.164168 0,-0.931335 0.48684,-1.73567 0.46566,-0.783168 1.27,-1.375835 0.78317,-0.571501 1.8415,-0.910168 1.03717,-0.317501 2.18017,-0.317501 0.65617,0 1.18534,0.04233 0.52916,0.04233 0.97366,0.127 0.44451,0.08467 0.84667,0.211667 0.40217,0.127 0.8255,0.275167 1.01601,-1.905003 1.86267,-3.958173 l 0.0212,-0.0635 q -0.27517,0.296334 -0.55033,0.592667 -0.27517,0.296334 -0.5715,0.529168 -0.14817,0.127 -0.38101,0.296334 -0.23283,0.169333 -0.55033,0.3175 -0.29633,0.127 -0.67733,0.232834 -0.381,0.08467 -0.80434,0.08467 -0.8255,-0.04233 -1.24883,-0.571501 -0.40217,-0.550334 -0.40217,-1.354669 0,-0.444501 0.0847,-0.846668 0.0847,-0.381001 0.23283,-0.889001 0.14817,-0.529168 0.33867,-1.121836 0.21166,-0.592667 0.42333,-1.227668 0.23283,-0.635001 0.46567,-1.248835 0.3175,-0.889002 0.61383,-1.73567 0.29634,-0.867835 0.508,-1.672169 z m -5.52451,18.139862 q 0.74084,0 1.43934,-0.317501 0.6985,-0.3175 1.35467,-0.867834 0.65616,-0.550334 1.24883,-1.333502 0.61384,-0.762002 1.18534,-1.651003 -0.67734,-0.275167 -1.41817,-0.423334 -0.71967,-0.148167 -1.60867,-0.169334 -0.74084,0 -1.56634,0.169334 -0.8255,0.169334 -1.50283,0.508001 -0.67734,0.359834 -1.12184,0.910168 -0.4445,0.550334 -0.40217,1.291169 0,0.571501 0.23284,0.931334 0.23283,0.359834 0.59267,0.571501 0.33866,0.211667 0.762,0.296334 0.42333,0.08467 0.80433,0.08467 z"
           style="font-size:21.1667px;font-family:'Ananda Black Personal Use';-inkscape-font-specification:'Ananda Black Personal Use, Normal';fill:url(#linearGradient4988);fill-opacity:1"
           id="path3903" />
        <path
           d="m 141.48803,36.766773 q 1.35467,-0.105834 2.54,0.254 1.20651,0.359834 2.09551,1.100669 0.91017,0.740834 1.48167,1.820336 0.5715,1.079501 0.67733,2.391837 0.0212,1.651003 -0.59267,3.513672 -0.59266,1.86267 -1.67217,3.683006 -1.0795,1.820336 -2.56117,3.492506 -1.4605,1.672169 -3.175,2.963338 -1.69334,1.291168 -3.55601,2.095503 -1.8415,0.804335 -3.683,0.889001 -0.80434,0.04233 -1.67217,-0.148166 -0.86784,-0.190501 -1.69334,-0.635002 -0.80433,-0.423334 -1.4605,-1.121835 -0.65617,-0.698501 -1.016,-1.714502 -0.0847,-0.444501 0.21166,-0.740835 0.29634,-0.296334 0.74084,-0.444501 0.4445,-0.148166 0.91017,-0.127 0.46566,0 0.6985,0.211667 0.10583,0.910168 0.4445,1.608669 0.35983,0.677335 0.86783,1.121836 0.508,0.465667 1.12184,0.656167 0.61383,0.211667 1.24883,0.148167 1.18534,-0.232834 2.54001,-1.016001 1.37583,-0.783168 2.70934,-1.968504 1.35466,-1.185335 2.6035,-2.667004 1.24883,-1.481669 2.20134,-3.111505 0.9525,-1.629836 1.524,-3.302005 0.5715,-1.672169 0.5715,-3.238505 0,-1.037168 -0.3175,-1.92617 -0.29633,-0.910168 -0.84667,-1.545169 -0.52917,-0.656168 -1.27,-1.037168 -0.74084,-0.381001 -1.5875,-0.402168 -1.39701,0.08467 -2.83634,0.889002 -1.43934,0.783168 -2.79401,1.968503 -1.3335,1.185335 -2.51883,2.667004 -1.16417,1.460502 -2.03201,2.921005 -0.86783,1.439335 -1.37583,2.751671 -0.48684,1.312335 -0.46567,2.201337 -0.0635,-0.402168 -0.35983,-0.952502 -0.27517,-0.571501 -0.635,-1.016001 -0.33867,-0.465668 -0.67734,-0.677335 -0.3175,-0.211667 -0.46567,0.08467 0,-0.02117 0,-0.02117 0.0212,0 0.0212,-0.02117 0.4445,-1.397003 1.18534,-2.772838 0.74083,-1.397002 1.73567,-2.645838 1.016,-1.270002 2.24367,-2.37067 1.22766,-1.100669 2.64583,-1.905003 1.41817,-0.825502 2.98451,-1.312336 1.56633,-0.508 3.25967,-0.592667 z m -3.53484,2.582337 q 0.0635,-0.105833 0.27517,-0.0635 0.21166,0.02117 0.48683,0.148167 0.29634,0.127 0.59267,0.338667 0.29633,0.211667 0.508,0.465668 0.23283,0.254 0.33867,0.550334 0.10583,0.275167 0.0212,0.529167 -1.0795,1.820337 -2.0955,3.746506 -1.016,1.92617 -1.92617,3.873506 -0.889,1.92617 -1.67217,3.810006 -0.762,1.883837 -1.397,3.619506 -0.0847,0.169334 -0.35983,0.02117 -0.27517,-0.169334 -0.57151,-0.465667 -0.29633,-0.317501 -0.52916,-0.677335 -0.21167,-0.359834 -0.16934,-0.550334 0.40217,-1.608669 1.12184,-3.598339 0.74083,-2.010837 1.62983,-4.085173 0.88901,-2.074337 1.86267,-4.064007 0.99484,-1.98967 1.88384,-3.598339 z m -10.56218,9.080515 q -0.0212,0.105833 -0.0423,0.1905 -0.0212,0.08467 -0.0212,0.169334 0,-0.105834 0.0212,-0.190501 0.0212,-0.105833 0.0423,-0.169333 z"
           style="font-size:21.1667px;font-family:'Ananda Black Personal Use';-inkscape-font-specification:'Ananda Black Personal Use, Normal';fill:url(#linearGradient4990);fill-opacity:1"
           id="path3905" />
        <path
           d="m 153.53189,45.720287 q 0.52916,0.0635 0.91017,0.254 0.381,0.190501 0.61383,0.465668 0.254,0.275167 0.35983,0.613834 0.127,0.338667 0.16934,0.677335 0.40216,0.4445 0.508,1.227668 0.0212,0.148167 0.0212,0.296334 0.0212,0.148167 0.0212,0.3175 0,0.783168 -0.23283,1.587503 -0.21167,0.804335 -0.61384,1.566336 -0.40216,0.762001 -0.9525,1.439335 -0.55033,0.656168 -1.2065,1.164169 -0.635,0.508001 -1.35467,0.804335 -0.6985,0.275167 -1.43933,0.275167 -1.29117,-0.02117 -2.28601,-0.783168 -0.99483,-0.783168 -1.35467,-2.201337 -0.10583,-0.465667 -0.10583,-0.889002 0,-1.164168 0.59267,-2.413003 0.59266,-1.248836 1.56633,-2.264837 0.99484,-1.016002 2.22251,-1.629836 1.24883,-0.613835 2.56117,-0.508001 z m -0.46567,4.254507 q -0.127,-0.04233 -0.21167,-0.190501 -0.0635,-0.169333 -0.10583,-0.381 -0.0212,-0.211667 -0.0212,-0.423334 0,-0.211667 0,-0.381001 0.0212,-0.169333 0.1905,-0.338667 0.16934,-0.1905 0.35984,-0.338667 0.21166,-0.148167 0.40216,-0.254001 0.21167,-0.127 0.27517,-0.169333 0.1905,-0.105834 0.35984,-0.127 -0.0212,-0.296334 -0.1905,-0.508001 -0.16934,-0.211667 -0.65617,-0.169334 -0.42334,0.04233 -1.03717,0.359834 -0.59267,0.317501 -1.12184,0.846668 h 0.0212 q -0.48683,0.486834 -0.889,1.121835 -0.381,0.613835 -0.65617,1.291169 -0.27517,0.656168 -0.4445,1.333502 -0.14817,0.677334 -0.14817,1.270002 0,0.889002 0.33867,1.502836 0.35983,0.613834 1.143,0.656168 0.78317,0.04233 1.54517,-0.571501 0.762,-0.613835 1.35467,-1.545169 0.61384,-0.931335 0.97367,-1.98967 0.381,-1.079502 0.35983,-1.968503 0,-0.423334 -0.0847,-0.508001 -0.1905,0 -0.42334,0.169333 -0.23283,0.148167 -0.4445,0.381001 -0.21167,0.211667 -0.381,0.465667 -0.14817,0.254001 -0.16933,0.465668 z"
           style="font-size:21.1667px;font-family:'Ananda Black Personal Use';-inkscape-font-specification:'Ananda Black Personal Use, Normal';fill:url(#linearGradient4992);fill-opacity:1"
           id="path3907" />
        <path
           d="m 167.98876,52.430131 q -0.29634,0.465667 -0.80434,1.164169 -0.508,0.677334 -1.143,1.312335 -0.635,0.635001 -1.35467,1.100668 -0.6985,0.444501 -1.41817,0.444501 -0.42333,0 -0.80433,-0.127 -0.381,-0.127 -0.67734,-0.381001 -0.29633,-0.254 -0.46566,-0.656167 -0.16934,-0.402168 -0.14817,-0.952502 0.0212,-0.529167 0.14817,-1.058335 0.127,-0.529168 0.33866,-1.121835 0.21167,-0.613834 0.48684,-1.333502 0.29633,-0.719668 0.67733,-1.608669 0.16933,-0.423334 0.27517,-0.783168 0.127,-0.381001 0.127,-0.677335 0,-0.211667 -0.27517,-0.127 -0.254,0.0635 -0.86783,0.613834 -0.74084,0.656168 -1.35467,1.333502 -0.61384,0.656168 -1.27,1.460503 -0.55034,1.248835 -0.93134,2.561171 -0.381,1.312335 -0.48683,2.709337 -0.0212,0.1905 -0.33867,0.148167 -0.3175,-0.04233 -0.67733,-0.1905 -0.35984,-0.169334 -0.67734,-0.402168 -0.3175,-0.232833 -0.33867,-0.4445 0.0847,-1.587503 0.59267,-3.132672 0.52917,-1.566336 1.12184,-3.153838 0.29633,-0.740835 0.5715,-1.524003 0.29633,-0.783168 0.55033,-1.714502 0.254,-0.127001 0.6985,0 0.4445,0.105833 0.84667,0.359833 0.40217,0.254001 0.65617,0.613835 0.254,0.359834 0.127,0.719668 h 0.0212 q 0,0.04233 -0.0212,0.0635 0.78317,-0.740835 1.67217,-1.248836 0.889,-0.529167 1.86267,-0.592667 0.254,0 0.55033,0.1905 0.29634,0.169334 0.52917,0.444501 0.254,0.254 0.381,0.550334 0.14817,0.296334 0.0847,0.529168 -0.35984,0.973668 -0.74084,1.841502 -0.35983,0.846668 -0.635,1.460503 -0.23283,0.550334 -0.4445,1.016001 -0.1905,0.465668 -0.35983,0.931335 -0.14817,0.444501 -0.254,0.931335 -0.0847,0.486834 -0.127,1.079502 -0.0212,0.105833 0.0423,0.211667 0.0847,0.105833 0.3175,0.04233 0.55033,-0.275167 1.37584,-0.994835 0.8255,-0.740834 1.67216,-2.010836 0.40217,-0.592668 0.76201,-1.206502 l 0.33866,-0.592668 q 0.0635,-0.105833 0.23284,-0.105833 0.1905,-0.02117 0.35983,0.04233 0.16933,0.0635 0.27517,0.169334 0.10583,0.105833 0.0212,0.254 l -1.10066,1.841503 z"
           style="font-size:21.1667px;font-family:'Ananda Black Personal Use';-inkscape-font-specification:'Ananda Black Personal Use, Normal';fill:url(#linearGradient4994);fill-opacity:1"
           id="path3909" />
        <path
           d="m 178.80493,52.430131 q -0.29633,0.465667 -0.80433,1.164169 -0.508,0.677334 -1.143,1.312335 -0.635,0.635001 -1.35467,1.100668 -0.6985,0.444501 -1.41817,0.444501 -0.42333,0 -0.80434,-0.127 -0.381,-0.127 -0.67733,-0.381001 -0.29633,-0.254 -0.46567,-0.656167 -0.16933,-0.402168 -0.14816,-0.952502 0.0212,-0.529167 0.14816,-1.058335 0.127,-0.529168 0.33867,-1.121835 0.21167,-0.613834 0.48683,-1.333502 0.29634,-0.719668 0.67734,-1.608669 0.16933,-0.423334 0.27517,-0.783168 0.127,-0.381001 0.127,-0.677335 0,-0.211667 -0.27517,-0.127 -0.254,0.0635 -0.86784,0.613834 -0.74083,0.656168 -1.35466,1.333502 -0.61384,0.656168 -1.27001,1.460503 -0.55033,1.248835 -0.93133,2.561171 -0.381,1.312335 -0.48684,2.709337 -0.0212,0.1905 -0.33866,0.148167 -0.3175,-0.04233 -0.67734,-0.1905 -0.35983,-0.169334 -0.67733,-0.402168 -0.3175,-0.232833 -0.33867,-0.4445 0.0847,-1.587503 0.59267,-3.132672 0.52917,-1.566336 1.12183,-3.153838 0.29634,-0.740835 0.5715,-1.524003 0.29634,-0.783168 0.55034,-1.714502 0.254,-0.127001 0.6985,0 0.4445,0.105833 0.84667,0.359833 0.40217,0.254001 0.65617,0.613835 0.254,0.359834 0.127,0.719668 h 0.0212 q 0,0.04233 -0.0212,0.0635 0.78316,-0.740835 1.67217,-1.248836 0.889,-0.529167 1.86266,-0.592667 0.25401,0 0.55034,0.1905 0.29633,0.169334 0.52917,0.444501 0.254,0.254 0.381,0.550334 0.14816,0.296334 0.0847,0.529168 -0.35983,0.973668 -0.74083,1.841502 -0.35983,0.846668 -0.635,1.460503 -0.23284,0.550334 -0.4445,1.016001 -0.1905,0.465668 -0.35984,0.931335 -0.14816,0.444501 -0.254,0.931335 -0.0847,0.486834 -0.127,1.079502 -0.0212,0.105833 0.0423,0.211667 0.0847,0.105833 0.3175,0.04233 0.55033,-0.275167 1.37583,-0.994835 0.8255,-0.740834 1.67217,-2.010836 0.40217,-0.592668 0.762,-1.206502 l 0.33867,-0.592668 q 0.0635,-0.105833 0.23283,-0.105833 0.1905,-0.02117 0.35984,0.04233 0.16933,0.0635 0.27517,0.169334 0.10583,0.105833 0.0212,0.254 l -1.10067,1.841503 z"
           style="font-size:21.1667px;font-family:'Ananda Black Personal Use';-inkscape-font-specification:'Ananda Black Personal Use, Normal';fill:url(#linearGradient4996);fill-opacity:1"
           id="path3911" />
        <path
           d="m 187.65261,48.662458 q 0,0.148167 -0.1905,0.232834 -0.16934,0.08467 -0.381,0.105834 -0.21167,0 -0.381,-0.08467 -0.16934,-0.08467 -0.16934,-0.254001 0,-0.08467 -0.0212,-0.148167 -0.0212,-0.08467 -0.0212,-0.169333 -0.0212,-0.232834 -0.0635,-0.508001 -0.0423,-0.296334 -0.14817,-0.529167 -0.10583,-0.254001 -0.3175,-0.423335 -0.1905,-0.169333 -0.508,-0.1905 -0.55033,-0.02117 -1.0795,0.254001 -0.508,0.254 -0.99484,0.698501 -0.48683,0.4445 -0.91016,1.016001 -0.42334,0.571501 -0.78317,1.206502 -0.33867,0.613835 -0.59267,1.248836 -0.254,0.613834 -0.40217,1.143001 -0.0635,0.254001 -0.127,0.592668 -0.0635,0.338667 -0.0635,0.677334 0,0.296334 0.0423,0.571501 0.0635,0.254001 0.21166,0.444501 0.14817,0.1905 0.381,0.275167 0.23284,0.0635 0.61384,-0.02117 0.29633,-0.0635 0.74083,-0.4445 0.4445,-0.402168 0.91017,-0.931335 0.46567,-0.529168 0.889,-1.100669 0.4445,-0.5715 0.71967,-1.016001 0.23283,-0.613834 0.40217,-1.206502 0.16933,-0.592668 0.21166,-1.079502 h 0.14817 q 0.254,-0.127 0.65617,0.02117 0.42333,0.127 0.78317,0.402167 0.381,0.275167 0.61383,0.656168 0.23284,0.359834 0.127,0.719668 -0.0423,0.127 -0.127,0.296334 -0.0635,0.148166 -0.127,0.3175 -0.16933,0.381001 -0.33867,0.804335 -0.16933,0.423334 -0.3175,0.846668 -0.127,0.423334 -0.23283,0.825501 -0.0847,0.381001 -0.0847,0.677334 0,0.444501 0.0635,0.508001 h 0.1905 q 0.5715,-0.1905 1.10067,-0.656167 0.52917,-0.465668 1.016,-1.058335 0.48684,-0.613835 0.91017,-1.291169 0.4445,-0.677335 0.8255,-1.291169 0.10584,-0.148167 0.16934,-0.275167 0.0847,-0.148167 0.16933,-0.296334 0.0635,-0.105833 0.254,-0.105833 0.1905,-0.02117 0.35983,0.04233 0.1905,0.0635 0.29634,0.169334 0.10583,0.105833 0.0212,0.254 -0.127,0.1905 -0.254,0.402167 -0.10583,0.190501 -0.23283,0.402168 -0.65617,1.079501 -1.43933,2.18017 -0.78317,1.079502 -1.82034,1.968503 -0.14817,0.127 -0.381,0.296334 -0.23284,0.169333 -0.52917,0.3175 -0.29633,0.148167 -0.67733,0.254001 -0.35984,0.08467 -0.80434,0.0635 -1.03717,-0.08467 -1.50283,-0.635001 -0.46567,-0.550334 -0.46567,-1.312336 v -0.296333 q -0.40217,0.423334 -0.84667,0.804334 -0.42333,0.381001 -0.889,0.677335 -0.4445,0.296333 -0.91017,0.486834 -0.46567,0.169333 -0.93133,0.169333 -0.76201,-0.0635 -1.29117,-0.359834 -0.508,-0.296333 -0.80434,-0.677334 -0.29633,-0.402167 -0.42333,-0.846668 -0.127,-0.465667 -0.127,-0.889001 0,-0.169334 0.0212,-0.338668 0,-0.169333 0.0212,-0.296333 0.0847,-0.677335 0.40217,-1.48167 0.33867,-0.804334 0.8255,-1.608669 0.508,-0.804334 1.16417,-1.545169 0.67733,-0.762001 1.4605,-1.333502 0.78317,-0.592668 1.62984,-0.931335 0.86783,-0.359834 1.778,-0.359834 0.5715,0 1.0795,0.127 0.46567,0.127001 0.762,0.423334 0.3175,0.296334 0.48684,0.698502 0.16933,0.381 0.21166,0.825501 0.0635,0.444501 0.0423,0.889001 z"
           style="font-size:21.1667px;font-family:'Ananda Black Personal Use';-inkscape-font-specification:'Ananda Black Personal Use, Normal';fill:url(#linearGradient4998);fill-opacity:1"
           id="path3913" />
      </g>
    </g>
  </g>
</svg>
